<svg xmlns="http://www.w3.org/2000/svg" width="17" height="21" fill="none" viewBox="0 0 17 21">
  <path stroke="#7A8084" stroke-linecap="round" stroke-linejoin="round" stroke-width="1.5" d="m8.179 16.632-5.685 3.25a.927.927 0 0 1-1.263-.394 1.08 1.08 0 0 1-.114-.467V4.623c0-2.746 1.798-3.845 4.386-3.845h6.08c2.508 0 4.385 1.025 4.385 3.662v14.58c0 .26-.099.51-.275.693a.92.92 0 0 1-.663.287 1.001 1.001 0 0 1-.457-.119l-5.719-3.25a.685.685 0 0 0-.675 0Z" clip-rule="evenodd"/>
  <path stroke="#7A8084" stroke-linecap="round" stroke-linejoin="round" stroke-width="1.5" d="M5.02 7.322h6.992"/>
</svg>
