<svg xmlns="http://www.w3.org/2000/svg" width="269" height="49" fill="none" viewBox="0 0 269 49">
  <path fill="#22282D" d="M1.833 5.464C1.008 2.796 2.976 0 5.768 0H262.92c2.739 0 4.697 2.698 3.954 5.335-1.459 5.18-3.373 13.123-3.373 19.165 0 6.041 1.914 13.985 3.373 19.165.743 2.637-1.215 5.335-3.954 5.335H5.769c-2.793 0-4.761-2.796-3.936-5.464C3.433 38.362 5.5 30.512 5.5 24.5c0-6.012-2.068-13.863-3.667-19.036Z"/>
  <path stroke="#22282D" stroke-opacity=".2" d="M5.768.5H262.92c2.393 0 4.13 2.367 3.473 4.7-1.46 5.18-3.392 13.183-3.392 19.3 0 6.117 1.932 14.12 3.392 19.3.657 2.333-1.08 4.7-3.473 4.7H5.769c-2.44 0-4.189-2.454-3.459-4.816C3.91 38.51 6 30.595 6 24.5c0-6.095-2.09-14.009-3.69-19.184C1.58 2.954 3.33.5 5.768.5Z"/>
</svg>
