<svg xmlns="http://www.w3.org/2000/svg" width="16" height="16" fill="none" viewBox="0 0 16 16">
  <g clip-path="url(#a)">
    <path fill="#0C2340" d="M4.331 0h7.338A4.336 4.336 0 0 1 16 4.331v7.338A4.336 4.336 0 0 1 11.669 16H4.331A4.336 4.336 0 0 1 0 11.669V4.331A4.336 4.336 0 0 1 4.331 0ZM8 12.375A4.38 4.38 0 0 0 12.375 8 4.38 4.38 0 0 0 8 3.625 4.38 4.38 0 0 0 3.625 8 4.38 4.38 0 0 0 8 12.375ZM3.52 4.657a1.294 1.294 0 0 0 .001-2.586c-.713 0-1.293.58-1.293 1.293s.58 1.293 1.293 1.293Z"/>
    <path fill="#0C2340" d="M8 4.563A3.44 3.44 0 0 1 11.437 8 3.44 3.44 0 0 1 8 11.437 3.44 3.44 0 0 1 4.563 8 3.44 3.44 0 0 1 8 4.563ZM3.52 3.01a.355.355 0 1 1 0 .71.355.355 0 0 1 0-.71Z"/>
  </g>
  <defs>
    <clipPath id="a">
      <path fill="#fff" d="M0 0h16v16H0z" transform="matrix(-1 0 0 1 16 0)"/>
    </clipPath>
  </defs>
</svg>
