<svg xmlns="http://www.w3.org/2000/svg" width="120" height="25" fill="none" viewBox="0 0 120 25">
  <g clip-path="url(#a)">
    <path fill="#22282D" d="M.888 24V.576h4.791V24H.888Zm15.443 0V4.906H8.843V.576h19.803v4.33h-7.524V24h-4.79Zm33.609-6.885c0 2.01-.722 3.667-2.165 4.969C46.33 23.36 44.485 24 42.238 24H31.804V.576h8.305c2.176 0 3.951.615 5.323 1.846 1.396 1.206 2.094 2.768 2.094 4.684 0 1.728-.58 3.135-1.739 4.224 2.769 1.017 4.153 2.945 4.153 5.785ZM39.718 4.693h-3.3v5.36h3.3c.97 0 1.716-.238 2.236-.71.544-.474.816-1.136.816-1.988 0-.828-.272-1.479-.816-1.952-.52-.473-1.266-.71-2.236-.71Zm5.501 12.244c0-.899-.295-1.609-.887-2.13-.591-.543-1.408-.815-2.449-.815h-5.465v5.891h5.465c1.041 0 1.858-.26 2.45-.78.59-.521.886-1.243.886-2.166Zm7.28-4.649c-.048-3.336 1.159-6.21 3.62-8.624C58.602 1.25 61.536.079 64.92.15c3.384-.07 6.318 1.1 8.802 3.514 2.508 2.413 3.738 5.288 3.691 8.624.047 3.336-1.183 6.21-3.691 8.624-2.484 2.414-5.418 3.585-8.802 3.514-3.383.07-6.317-1.1-8.802-3.514-2.46-2.413-3.667-5.288-3.62-8.624Zm19.98 0c0-2.224-.72-4.058-2.164-5.501-1.42-1.467-3.206-2.2-5.36-2.2-2.176 0-3.974.721-5.394 2.164-1.42 1.444-2.13 3.29-2.13 5.537 0 2.248.71 4.093 2.13 5.537 1.42 1.443 3.218 2.165 5.395 2.165 2.153 0 3.94-.722 5.359-2.165 1.443-1.444 2.165-3.29 2.165-5.537ZM96.07 24l-1.313-3.052h-9.582L83.86 24h-5.147L89.184.15h1.597L101.216 24H96.07Zm-2.98-6.992-3.124-7.914-3.123 7.914h6.246ZM107.033 24V4.906h-7.489V.576h19.804v4.33h-7.524V24h-4.791Z"/>
  </g>
  <defs>
    <clipPath id="a">
      <path fill="#fff" d="M0 0h120v25H0z"/>
    </clipPath>
  </defs>
</svg>
