<svg xmlns="http://www.w3.org/2000/svg" width="16" height="10" fill="none" viewBox="0 0 16 10">
  <path fill="#0C2340" d="M15.857 8.578c-.042-.072-.308-.65-1.589-1.838-1.34-1.244-1.16-1.042.454-3.193.984-1.31 1.377-2.11 1.254-2.452-.118-.326-.84-.24-.84-.24L12.73.869s-.178-.024-.31.055c-.13.078-.213.258-.213.258s-.38 1.014-.889 1.876c-1.07 1.82-1.5 1.915-1.675 1.802-.407-.263-.305-1.058-.305-1.622 0-1.763.267-2.498-.521-2.688C8.556.487 8.364.445 7.695.438 6.837.428 6.11.44 5.699.642c-.274.134-.485.433-.356.45.159.02.519.097.71.357.247.335.238 1.089.238 1.089s.142 2.075-.331 2.333c-.325.177-.77-.184-1.725-1.835-.49-.845-.86-1.78-.86-1.78s-.07-.174-.197-.267c-.154-.113-.37-.15-.37-.15L.52.855s-.343.01-.469.159c-.112.133-.009.407-.009.407s1.79 4.187 3.817 6.298c1.859 1.936 3.969 1.809 3.969 1.809h.956s.289-.032.436-.191c.136-.146.131-.42.131-.42s-.019-1.284.577-1.473c.587-.186 1.341 1.24 2.14 1.79.604.415 1.063.324 1.063.324l2.138-.03s1.117-.07.588-.949Z"/>
</svg>
